PathFileType	4	(X/Y/Z)	C:\Users\Basilio\Documents\Thesis Gigler\squatting_fais\c3dfiles\077\SLS_front_pre1\markers_experimental.trc
DataRate	CameraRate	NumFrames	NumMarkers	Units	OrigDataRate	OrigDataStartFrame	OrigNumFrames
200.000000	200.000000	4	60	mm	200.000000	0	3071
Frame#	Time	FHD			LBHD			RBHD			C7			T10			CLAV			LSHO			LUUPA			LMUPA			LDUPA			LLEP			LMEP			LRAD			LUL			LRFIN			RSHO			RUPA1			RMUPA			RDUPA			RLEP			RMEP			RRAD			RUL			RUFIN			LASI			RASI			USACR			LSACR			RSACR			LTHI1			LTHI2			LTHI3			LTHI4			LLFC			LMFC			LTIB1			LTIB2			LTIB3			LTIB4			LLMAL			LHEE			LMT1			LMT2			LMT5			RTHI			RTHI2			RTHI3			RTHI4			RLFC			RMFC			RTIB1			RTIB2			RTIB3			RTIB4			RLMAL			RMMAL			RHEE			RMT1			RMT2			RMT5			
		X1	Y1	Z1	X2	Y2	Z2	X3	Y3	Z3	X4	Y4	Z4	X5	Y5	Z5	X6	Y6	Z6	X7	Y7	Z7	X8	Y8	Z8	X9	Y9	Z9	X10	Y10	Z10	X11	Y11	Z11	X12	Y12	Z12	X13	Y13	Z13	X14	Y14	Z14	X15	Y15	Z15	X16	Y16	Z16	X17	Y17	Z17	X18	Y18	Z18	X19	Y19	Z19	X20	Y20	Z20	X21	Y21	Z21	X22	Y22	Z22	X23	Y23	Z23	X24	Y24	Z24	X25	Y25	Z25	X26	Y26	Z26	X27	Y27	Z27	X28	Y28	Z28	X29	Y29	Z29	X30	Y30	Z30	X31	Y31	Z31	X32	Y32	Z32	X33	Y33	Z33	X34	Y34	Z34	X35	Y35	Z35	X36	Y36	Z36	X37	Y37	Z37	X38	Y38	Z38	X39	Y39	Z39	X40	Y40	Z40	X41	Y41	Z41	X42	Y42	Z42	X43	Y43	Z43	X44	Y44	Z44	X45	Y45	Z45	X46	Y46	Z46	X47	Y47	Z47	X48	Y48	Z48	X49	Y49	Z49	X50	Y50	Z50	X51	Y51	Z51	X52	Y52	Z52	X53	Y53	Z53	X54	Y54	Z54	X55	Y55	Z55	X56	Y56	Z56	X57	Y57	Z57	X58	Y58	Z58	X59	Y59	Z59	X60	Y60	Z60	

1	0	-239.9917449951172	1868.12939453125	-894.3039550781252	-377.6285400390626	1754.94580078125	-957.683288574219	-378.9776306152344	1752.790161132813	-811.0792236328127	-433.619354248047	1615.223999023438	-888.3546142578127	-463.0375061035157	1286.515258789063	-882.516784667969	-267.8836975097657	1558.7109375	-891.3339843750002	-351.9280700683594	1582.4140625	-1082.457641601563	-405.726776123047	1365.24462890625	-1178.510498046875	-364.3937072753907	1339.195922851563	-1176.802856445313	-408.8697509765626	1297.405151367188	-1183.873168945313	-401.9388732910157	1231.366088867188	-1187.206909179688	-432.0595092773439	1214.93212890625	-1117.646240234375	-262.0585632324219	960.6714477539065	-1157.328247070313	-328.5125732421876	939.7445068359377	-1196.7333984375	-224.3388214111329	889.3011474609377	-1200.043212890625	-319.4320068359376	1581.647094726563	-696.6316528320314	-383.5130004882813	1377.421020507813	-582.8369750976564	-343.1920471191407	1350.450317382813	-585.7142333984376	-385.2020263671876	1308.460205078125	-573.7750854492189	-379.3943481445313	1241.403564453125	-565.2487182617189	-406.2679443359376	1216.773803710938	-637.8549194335939	-230.7793273925782	980.1978759765627	-569.9448852539064	-291.1412963867188	961.6243896484377	-522.9835205078126	-198.9948730468751	898.1604614257815	-532.2106933593751	-280.9273681640626	1066.539306640625	-1019.458557128906	-272.3817443847657	1095.931518554688	-733.1886596679689	-475.8643188476564	1170.118286132813	-878.4664306640627	-483.4741516113282	1139.544189453125	-906.4627075195315	-484.9405517578126	1138.020141601563	-850.9144287109377	-366.2649536132813	862.9014282226565	-1078.615112304688	-343.0727233886719	781.1704101562502	-1081.481811523438	-294.3361206054688	779.5133056640627	-1076.724853515625	-375.1655273437501	731.4655151367189	-1065.926635742188	-357.4499206542969	582.8768310546876	-1048.830932617188	-341.8125915527344	549.7633056640626	-919.5967407226565	-309.2508239746094	362.7443237304688	-1007.646911621094	-344.4259338378907	323.0036926269532	-1080.612182617188	-309.7303466796876	319.9648742675782	-1049.676513671875	-304.7977294921876	238.3683319091797	-1027.162719726563	-356.6178283691407	117.5878601074219	-1076.807250976563	-407.3091125488282	82.86026763916017	-1025.553955078125	-197.5272216796876	56.94526290893556	-1012.220458984375	-192.5173645019532	57.87649536132814	-1054.271240234375	-321.8959655761719	126.6674346923828	-994.3980102539065	-397.786102294922	762.4456176757814	-704.3161010742189	-370.3481140136719	703.8663330078126	-704.7008666992189	-336.5514221191407	700.5875854492189	-706.0872192382814	-405.8648376464845	632.7616577148439	-724.2402343750001	-409.5919494628907	561.1473999023439	-730.3049926757814	-374.8413085937501	551.3890380859376	-858.1130371093752	-348.6337585449219	429.4820556640626	-752.4065551757814	-404.9479370117189	342.3511047363282	-726.5508422851564	-360.8490905761719	343.0816040039063	-744.1588745117189	-349.0060119628907	301.2831726074219	-785.616394042969	-400.1053466796876	114.9018936157227	-757.7269287109376	-364.4890136718751	131.040512084961	-843.523864746094	-453.9479064941407	91.00100708007814	-822.3763427734377	-231.8363647460938	65.21150970458986	-796.1463012695315	-239.4157714843751	61.7042808532715	-758.6412353515626	-262.3706359863282	40.79172134399415	-713.7758178710939	
2	0.005	-239.8183288574219	1868.123168945313	-894.5754394531252	-377.4182434082032	1754.802001953125	-958.0756835937502	-378.8585205078126	1752.823486328125	-811.3799438476565	-433.6004028320314	1615.156005859375	-888.571960449219	-462.850067138672	1286.44091796875	-882.8480224609377	-267.8920898437501	1558.703491210938	-891.6443481445315	-351.7430725097657	1582.168212890625	-1082.8671875	-405.4326782226564	1364.939575195313	-1178.72705078125	-364.0833435058594	1338.901245117188	-1177.002075195313	-408.6493225097657	1297.082763671875	-1184.035766601563	-401.7628173828126	1230.982299804688	-1187.3095703125	-431.9134216308595	1214.658325195313	-1117.739379882813	-261.9826354980469	960.3198852539065	-1157.226928710938	-328.5229187011719	939.4932861328127	-1196.575317382813	-224.3497009277344	888.9067993164065	-1199.94091796875	-319.2930603027344	1581.68994140625	-696.8652954101564	-383.2672424316407	1377.40966796875	-583.1539916992189	-342.9609069824219	1350.3828125	-586.0687866210939	-384.9918823242189	1308.456665039063	-574.1076049804689	-379.1871948242188	1241.339477539063	-565.5567626953126	-406.198211669922	1216.791259765625	-638.0941772460939	-230.2512664794922	980.3020019531252	-570.9766845703126	-290.6131896972657	961.6130371093752	-523.9223022460939	-198.2951812744141	898.2760009765627	-533.5068359375001	-280.6108398437501	1066.523681640625	-1019.589294433594	-272.3165283203126	1095.966918945313	-733.3126220703126	-475.6671447753907	1170.048217773438	-878.7922363281252	-483.2353820800782	1139.540649414063	-906.8228759765627	-484.8037719726564	1137.994384765625	-851.215515136719	-366.0458068847657	862.779479980469	-1078.790283203125	-342.9316406250001	781.168884277344	-1081.652587890625	-294.2079467773438	779.4377441406252	-1076.847290039063	-375.0463256835938	731.4592285156251	-1066.137939453125	-357.4760437011719	582.8966064453126	-1048.970703125	-341.9750061035157	549.7590942382814	-919.738708496094	-309.3617553710938	362.7438964843751	-1007.745788574219	-344.5323791503907	322.9591674804688	-1080.672607421875	-309.7460937500001	319.9785156250001	-1049.700561523438	-304.8287963867188	238.3999023437501	-1027.138916015625	-356.6225891113282	117.5295867919922	-1076.84326171875	-407.3314208984376	82.84762573242189	-1025.565063476563	-197.520980834961	56.94556808471681	-1012.187561035156	-192.5098724365235	57.84718322753908	-1054.357177734375	-321.9112854003907	126.681640625	-994.4253540039065	-397.7967224121095	762.4656372070314	-704.5841674804689	-370.3268737792969	703.8860473632814	-704.8278198242189	-336.5456848144532	700.6244506835939	-706.2455444335939	-405.8580627441407	632.7922973632814	-724.4190063476564	-409.586151123047	561.1683349609376	-730.4566040039064	-374.7458190917969	551.3639526367189	-858.282653808594	-348.6390075683594	429.5244750976564	-752.4768066406251	-405.0197143554689	342.4157104492188	-726.6419067382814	-360.8736572265626	343.0817260742188	-744.2102661132814	-349.0338134765626	301.2740783691407	-785.6797485351565	-400.1040649414064	114.9551696777344	-757.7579956054689	-364.4052124023438	131.0586242675782	-843.523620605469	-453.938934326172	91.04939270019533	-822.3543090820315	-231.8606567382813	65.18653106689455	-796.185729980469	-239.4156799316407	61.71888732910158	-758.6453857421876	-262.3588867187501	40.7848014831543	-713.7753906250001	
3	0.01	-239.8700256347657	1868.102172851563	-895.0654907226565	-377.3362121582032	1754.813232421875	-958.4884033203127	-378.7480773925782	1752.834350585938	-811.7579345703127	-433.6021728515626	1615.0615234375	-888.8418579101565	-462.6425170898439	1286.375610351563	-883.1545410156252	-267.8485717773438	1558.70068359375	-891.912536621094	-351.5561218261719	1581.971313476563	-1083.2880859375	-405.2024841308595	1364.6044921875	-1178.925415039063	-363.8843078613282	1338.593994140625	-1177.13818359375	-408.2871704101564	1296.78857421875	-1184.209594726563	-401.467742919922	1230.656616210938	-1187.3876953125	-431.7468872070314	1214.4091796875	-1117.799194335938	-261.8882751464844	959.9355468750002	-1157.125854492188	-328.4855957031251	939.1944580078127	-1196.473510742188	-224.2759552001954	888.5250244140627	-1199.77001953125	-319.1331481933594	1581.731201171875	-697.1436767578126	-383.0006103515626	1377.380126953125	-583.3988647460939	-342.7631225585938	1350.343383789063	-586.4719848632814	-384.7236633300782	1308.4208984375	-574.4346313476564	-379.0234069824219	1241.29150390625	-565.9346313476564	-406.1081848144532	1216.826538085938	-638.4967041015626	-229.8627166748047	980.3674316406252	-571.9738769531251	-289.9653015136719	961.530700683594	-524.8175659179689	-197.6738891601563	898.383972167969	-534.7196655273439	-280.2669677734376	1066.476440429688	-1019.802001953125	-272.2613525390626	1095.937866210938	-733.4644775390626	-475.5078430175782	1170.07421875	-879.1275634765627	-482.9908752441407	1139.526977539063	-907.2121582031252	-484.6510620117189	1137.989990234375	-851.5885009765627	-365.8621826171876	862.7297363281252	-1078.92529296875	-342.8103637695313	781.1173095703127	-1081.828979492188	-294.0669860839844	779.3518676757815	-1076.940307617188	-374.9247741699219	731.3888549804689	-1066.29736328125	-357.5647583007813	582.8239135742189	-1049.077758789063	-342.1830444335938	549.7244262695314	-919.8405761718752	-309.3987426757813	362.7552490234376	-1007.776977539063	-344.5928955078126	322.9697265625001	-1080.75341796875	-309.8187255859376	319.9591674804688	-1049.802612304688	-304.8987121582032	238.3981628417969	-1027.234619140625	-356.6535034179688	117.5449371337891	-1076.84130859375	-407.3346557617189	82.86563110351564	-1025.6015625	-197.5330963134766	56.94300842285158	-1012.221557617188	-192.5060577392579	57.80356979370119	-1054.326538085938	-321.9102783203126	126.6517105102539	-994.4199829101565	-397.7600097656251	762.4690551757814	-704.7703247070314	-370.6115417480469	703.6438598632814	-704.4683837890626	-336.5339965820313	700.5967407226564	-706.3828735351564	-405.9086303710939	632.8079833984376	-724.6092529296876	-409.6051635742189	561.1790771484376	-730.6242675781251	-374.7193603515626	551.3856201171876	-858.4493408203127	-348.6711425781251	429.5457153320314	-752.5955200195314	-405.0352172851564	342.4177856445313	-726.8132934570314	-360.9067077636719	343.1234436035157	-744.3022460937501	-348.9881591796876	301.2938842773438	-785.7248535156252	-400.1682434082032	114.977523803711	-757.8385620117189	-364.4260253906251	131.0777435302735	-843.5701904296877	-453.9113159179689	91.0415725708008	-822.4020996093752	-231.8609771728516	65.18440246582033	-796.1853027343752	-239.4300842285157	61.7057228088379	-758.6915893554689	-262.3715820312501	40.77018356323243	-713.7821655273439	
4	0.015	-239.6672821044922	1868.108764648438	-895.4079589843752	-377.2588195800782	1754.827880859375	-958.870056152344	-378.7356262207032	1752.517456054688	-811.821228027344	-433.5819702148439	1615.021850585938	-889.105651855469	-462.4867248535157	1286.255981445313	-883.3469848632815	-267.8744506835938	1558.741455078125	-892.2212524414065	-351.4460449218751	1581.77099609375	-1083.639038085938	-404.9187011718751	1364.257202148438	-1179.137939453125	-363.5497436523438	1338.256713867188	-1177.297119140625	-408.0530395507814	1296.481567382813	-1184.301025390625	-401.2196350097657	1230.306884765625	-1187.496337890625	-431.5356750488282	1214.159912109375	-1117.864135742188	-261.8383789062501	959.569763183594	-1157.030029296875	-328.4738464355469	938.8570556640627	-1196.339721679688	-224.3103332519532	888.0049438476565	-1199.678588867188	-319.0480346679688	1581.764282226563	-697.3782348632814	-382.7872314453126	1377.361694335938	-583.6990966796876	-342.5675964355469	1350.314697265625	-586.8111572265626	-384.5116577148439	1308.35888671875	-574.8062133789064	-378.7537536621094	1241.233520507813	-566.3011474609376	-406.0255737304689	1216.7880859375	-638.8472900390626	-229.3444213867188	980.4730224609377	-572.9728393554689	-289.3578491210938	961.5069580078127	-525.7255249023439	-197.0069580078126	898.5048828125002	-536.0341186523439	-279.9078674316407	1066.434936523438	-1019.944458007813	-272.2189636230469	1095.949340820313	-733.6394653320314	-475.3712158203126	1170.072021484375	-879.4548339843752	-482.6861877441407	1139.531494140625	-907.5884399414065	-484.4963378906251	1137.974487304688	-851.9683227539065	-365.6348876953126	862.673034667969	-1079.1181640625	-342.5977783203126	781.0279541015627	-1081.96923828125	-293.9008483886719	779.300476074219	-1077.034912109375	-374.7535400390626	731.3896484375001	-1066.496337890625	-357.6533203125001	582.8602294921876	-1049.169677734375	-342.3712158203126	549.7595825195314	-919.9138183593752	-309.5276184082032	362.7287597656251	-1007.827331542969	-344.6388549804688	322.9648437500001	-1080.791625976563	-309.8606567382813	319.9590454101563	-1049.829833984375	-304.9231262207032	238.3999023437501	-1027.2783203125	-356.6194152832032	117.5328140258789	-1076.878295898438	-407.3188781738282	82.83982849121095	-1025.614501953125	-197.5224914550782	56.92136383056642	-1012.212829589844	-192.5237884521485	57.81842041015626	-1054.314697265625	-321.9625244140626	126.6812362670899	-994.4483032226565	-397.7586975097657	762.4883422851564	-705.0153198242189	-370.5753784179688	703.6505737304689	-704.6406860351564	-336.5380249023438	700.5761718750001	-706.5330200195314	-405.9256896972657	632.8313598632814	-724.8187866210939	-409.615692138672	561.2277832031251	-730.8009643554689	-374.6999206542969	551.3910522460939	-858.6037597656252	-348.3062438964844	429.2464294433595	-752.5543823242189	-405.0669250488282	342.4569091796876	-726.8804931640626	-360.9324645996094	343.1494750976563	-744.4044799804689	-349.0339355468751	301.3134460449219	-785.758239746094	-400.1683654785157	114.9774475097657	-757.8385620117189	-364.4256896972657	131.0606842041016	-843.5803833007815	-453.912322998047	91.05886840820314	-822.3764648437502	-231.8723449707032	65.18949127197267	-796.1928710937502	-239.4262084960938	61.71342086791994	-758.6903686523439	-262.3816223144532	40.76418685913087	-713.7659912109376	
